<svg width="487" height="67" viewBox="0 0 487 67" fill="none" xmlns="http://www.w3.org/2000/svg">
<path d="M225.503 44.6523C231.509 50.6584 241.245 50.6584 247.25 44.6523L247.826 44.077C250.828 41.0755 244.823 25.3323 247.826 22.3301L225.503 44.6523Z" fill="url(#paint0_linear_1408_7542)"/>
<path d="M248.406 21.7502L247.831 22.3265C244.829 25.3277 250.833 41.0712 247.831 44.0727L270.153 21.7505C267.15 18.748 263.215 17.247 259.279 17.247C255.344 17.247 251.409 18.7476 248.406 21.7502Z" fill="url(#paint1_linear_1408_7542)"/>
<path d="M225.504 22.9062C219.499 28.9113 219.499 38.6477 225.504 44.6524L248.411 21.7466C254.416 15.7408 254.416 6.00446 248.411 0L225.504 22.9062Z" fill="url(#paint2_linear_1408_7542)"/>
<path d="M247.251 44.6525C241.246 50.6586 241.246 60.3946 247.251 66.3997L270.158 43.4929C276.163 37.4888 276.163 27.7518 270.158 21.7466L247.251 44.6525Z" fill="url(#paint3_linear_1408_7542)"/>
<path d="M359.263 33.3209C358.801 31.7354 358.11 30.2248 357.212 28.8303C355.673 26.444 353.531 24.4549 351.016 23.0764C347.045 20.9113 342.306 20.4009 337.944 21.6713C333.54 22.9553 329.902 25.8847 327.7 29.918C325.51 33.9324 325.005 38.5587 326.279 42.9498L326.291 42.9947C326.584 43.9739 327.055 45.2233 327.063 45.2436C328.525 48.6634 330.972 51.275 334.542 53.2271C337.065 54.6076 339.904 55.337 342.75 55.337C344.386 55.337 346.021 55.1001 347.609 54.6329C350.966 53.652 353.895 51.7145 356.107 48.9938L356.245 48.8208C356.809 48.1074 357.32 47.3455 357.763 46.5529C358.552 45.1441 358.046 43.3577 356.637 42.5694C356.201 42.3259 355.708 42.1978 355.211 42.1978C354.15 42.1978 353.171 42.7714 352.654 43.6954C351.932 44.9877 350.975 46.1094 349.811 47.0304C349.71 47.1109 349.615 47.1967 349.564 47.256C348.491 48.0532 347.282 48.6541 345.969 49.0401C343.1 49.8832 339.972 49.5455 337.336 48.1091C335.595 47.1601 334.14 45.7543 333.107 44.0291L357.287 36.933C358.827 36.4798 359.713 34.8604 359.263 33.3209ZM342.798 26.7937C344.667 26.7937 346.541 27.2765 348.218 28.1892C349.871 29.0922 351.287 30.4051 352.313 31.9853C352.37 32.0751 352.428 32.167 352.485 32.2605L331.433 38.4359C331.379 36.4482 331.857 34.4741 332.825 32.706C334.275 30.0478 336.674 28.1143 339.583 27.2605C340.639 26.9511 341.722 26.7937 342.798 26.7937Z" fill="#382757"/>
<path d="M390.298 49.7808H374.302L392.191 23.5007C392.529 23.0036 392.565 22.3655 392.283 21.8341C392.003 21.3027 391.455 20.9733 390.854 20.9733H368.11C366.6 20.9733 365.371 22.2024 365.371 23.7117C365.371 25.2223 366.6 26.4501 368.11 26.4501H383.353L365.469 52.7301C365.131 53.2282 365.095 53.8671 365.376 54.3971C365.657 54.9278 366.205 55.2572 366.806 55.2572H390.298C391.808 55.2572 393.036 54.0294 393.036 52.5189C393.036 51.0096 391.808 49.7808 390.298 49.7808Z" fill="#382757"/>
<path d="M425.738 49.7807H409.743L427.632 23.5007C427.97 23.0049 428.006 22.3664 427.724 21.8327C427.443 21.303 426.894 20.9736 426.294 20.9736H403.55C402.04 20.9736 400.811 22.2027 400.811 23.7119C400.811 25.2225 402.04 26.4503 403.55 26.4503H418.793L400.908 52.7304C400.572 53.2281 400.536 53.8667 400.816 54.3974C401.098 54.9281 401.646 55.2575 402.246 55.2575H425.738C427.248 55.2575 428.477 54.0297 428.477 52.5191C428.477 51.0095 427.248 49.7807 425.738 49.7807Z" fill="#382757"/>
<path d="M441.533 6.14594C440.023 6.14594 438.794 7.37471 438.794 8.88531V52.6174C438.794 54.1263 440.023 55.3561 441.533 55.3561C443.042 55.3561 444.271 54.1263 444.271 52.6174V8.88531C444.271 7.37471 443.042 6.14594 441.533 6.14594Z" fill="#382757"/>
<path d="M486.457 33.3215C485.996 31.7377 485.306 30.2271 484.407 28.8306C482.867 26.4453 480.725 24.4552 478.211 23.0767C474.239 20.9116 469.503 20.4012 465.138 21.6716C460.734 22.9556 457.096 25.885 454.896 29.9183C452.704 33.9317 452.2 38.5587 453.473 42.9501L453.485 42.9953C453.777 43.9699 454.248 45.2213 454.257 45.2436C455.719 48.6634 458.165 51.274 461.736 53.2271C464.259 54.6076 467.097 55.337 469.945 55.337C471.58 55.337 473.214 55.1001 474.804 54.6329C478.162 53.652 481.09 51.7135 483.299 48.9974L483.443 48.8158C484.008 48.1007 484.517 47.3398 484.957 46.5529C485.745 45.1441 485.24 43.3577 483.831 42.5694C483.395 42.3259 482.902 42.1978 482.405 42.1978C481.345 42.1978 480.366 42.7714 479.848 43.6954C479.125 44.988 478.169 46.11 477.006 47.0293C476.903 47.1105 476.809 47.1967 476.758 47.2559C475.685 48.0532 474.476 48.6541 473.162 49.04C470.296 49.8825 467.167 49.5455 464.529 48.1091C462.788 47.1598 461.333 45.754 460.301 44.0291L484.481 36.933C486.021 36.4798 486.907 34.8604 486.457 33.3215ZM469.992 26.7937C471.861 26.7937 473.735 27.2765 475.412 28.1891C477.066 29.0922 478.481 30.4051 479.507 31.9853C479.565 32.0751 479.622 32.1669 479.679 32.2604L458.626 38.4359C458.573 36.4472 459.052 34.4734 460.018 32.7059C461.468 30.0478 463.868 28.1143 466.777 27.2605C467.835 26.951 468.916 26.7937 469.992 26.7937Z" fill="#382757"/>
<path d="M317.102 40.0301C316.289 38.8413 315.117 37.8504 313.617 37.0868C311.166 35.8384 307.987 35.2681 304.94 34.7906L304.456 34.7158C302.316 34.3824 300.103 34.038 298.683 33.3193C297.607 32.7753 297.226 32.1604 297.226 30.9676C297.226 28.6547 299.743 26.9106 303.081 26.9106C307.066 26.9106 309.29 28.0748 311.785 29.5974C312.248 29.8799 312.779 30.0286 313.319 30.0286C314.358 30.0286 315.3 29.5015 315.84 28.6165C316.25 27.9444 316.374 27.1515 316.189 26.3852C316.003 25.6196 315.531 24.9721 314.858 24.5618C313.476 23.7184 311.968 22.838 310.06 22.1545C307.914 21.3853 305.631 21.0116 303.082 21.0116C300.006 21.0116 297.131 21.9449 294.985 23.6425C292.625 25.5061 291.326 28.1081 291.326 30.9679C291.326 34.3963 292.949 37.0306 296.02 38.5848C298.276 39.7264 300.958 40.1419 303.55 40.5445L304.027 40.6194C310.676 41.6619 312.598 42.5988 312.598 44.7982C312.598 47.5229 309.87 49.3073 305.647 49.3439L305.495 49.3446C300.964 49.3446 298.422 47.6031 297.057 46.6688C296.832 46.5144 296.636 46.3806 296.444 46.2609C295.975 45.9681 295.436 45.8137 294.885 45.8137C293.858 45.8137 292.922 46.3324 292.379 47.2018C291.519 48.5823 291.941 50.4063 293.322 51.2668C293.397 51.3137 293.514 51.3939 293.644 51.4821L293.723 51.5356C295.342 52.645 299.136 55.2446 305.495 55.2446L305.698 55.2436C309.364 55.211 312.514 54.2241 314.808 52.3888C317.188 50.4835 318.499 47.7884 318.499 44.7982C318.498 42.9868 318.029 41.3834 317.102 40.0301Z" fill="#382757"/>
<path d="M12.7044 43.7297C11.273 43.7297 9.92992 43.4558 8.67523 42.9079C7.43822 42.3601 6.34257 41.6002 5.3883 40.6283C4.4517 39.6564 3.71833 38.5342 3.18817 37.2618C2.6757 35.9718 2.41946 34.5846 2.41946 33.1002C2.41946 31.6334 2.6757 30.2638 3.18817 28.9915C3.71833 27.7015 4.4517 26.5793 5.3883 25.625C6.3249 24.6531 7.41171 23.8932 8.64873 23.3454C9.90342 22.7799 11.2553 22.4971 12.7044 22.4971C13.9944 22.4971 15.1519 22.6827 16.1769 23.0538C17.2018 23.4072 18.2003 23.9904 19.1722 24.8033C19.3313 24.927 19.4285 25.0684 19.4638 25.2274C19.5168 25.3688 19.5257 25.5102 19.4903 25.6515C19.455 25.7929 19.3843 25.9078 19.2782 25.9961C19.2606 26.2082 19.1634 26.3761 18.9867 26.4998C18.8099 26.6235 18.6067 26.6853 18.377 26.6853C18.1473 26.6677 17.9175 26.5705 17.6878 26.3937C17.0163 25.8106 16.2917 25.3776 15.5142 25.0949C14.7366 24.7945 13.8 24.6442 12.7044 24.6442C11.5911 24.6442 10.5484 24.8651 9.57649 25.3069C8.60455 25.7487 7.74747 26.3584 7.00526 27.136C6.26305 27.9135 5.67988 28.8148 5.25576 29.8397C4.84931 30.8647 4.64609 31.9515 4.64609 33.1002C4.64609 34.2842 4.84931 35.3886 5.25576 36.4136C5.67988 37.4209 6.26305 38.3133 7.00526 39.0909C7.74747 39.8684 8.60455 40.4781 9.57649 40.9199C10.5484 41.3617 11.5911 41.5826 12.7044 41.5826C13.641 41.5826 14.5334 41.4235 15.3816 41.1054C16.2299 40.7873 17.0339 40.3367 17.7938 39.7535C18.0412 39.5592 18.2975 39.4796 18.5625 39.515C18.8276 39.5503 19.0485 39.6652 19.2252 39.8596C19.4196 40.054 19.5168 40.3102 19.5168 40.6283C19.5168 40.7697 19.4903 40.911 19.4373 41.0524C19.3843 41.1761 19.3048 41.3087 19.1987 41.45C18.2798 42.2453 17.2637 42.8284 16.1504 43.1995C15.0547 43.553 13.9061 43.7297 12.7044 43.7297ZM36.0161 43.4646C35.6803 43.4646 35.4064 43.3586 35.1944 43.1465C34.9823 42.9344 34.8763 42.6694 34.8763 42.3513V35.5919C34.8763 34.5139 34.6731 33.6391 34.2666 32.9676C33.8602 32.2784 33.3123 31.7659 32.6231 31.4302C31.9516 31.0944 31.1741 30.9265 30.2905 30.9265C29.4776 30.9265 28.7354 31.0856 28.0638 31.4037C27.3923 31.7218 26.8622 32.1636 26.4734 32.729C26.0846 33.2769 25.8902 33.9131 25.8902 34.6376H24.3793C24.397 33.5243 24.6797 32.5347 25.2275 31.6687C25.793 30.7852 26.5441 30.0871 27.4807 29.5747C28.4173 29.0622 29.4599 28.8059 30.6086 28.8059C31.8633 28.8059 32.9766 29.071 33.9485 29.6012C34.9381 30.1136 35.7157 30.8735 36.2812 31.8808C36.8467 32.8881 37.1294 34.1251 37.1294 35.5919V42.3513C37.1294 42.6694 37.0234 42.9344 36.8113 43.1465C36.5993 43.3586 36.3342 43.4646 36.0161 43.4646ZM24.7769 43.4646C24.4411 43.4646 24.1672 43.3674 23.9552 43.173C23.7431 42.961 23.6371 42.687 23.6371 42.3513V30.1048C23.6371 29.7514 23.7431 29.4775 23.9552 29.2831C24.1672 29.071 24.4411 28.965 24.7769 28.965C25.1127 28.965 25.3777 29.071 25.5721 29.2831C25.7842 29.4775 25.8902 29.7514 25.8902 30.1048V42.3513C25.8902 42.687 25.7842 42.961 25.5721 43.173C25.3777 43.3674 25.1127 43.4646 24.7769 43.4646ZM24.7769 37.7655C24.4411 37.7655 24.1672 37.6594 23.9552 37.4474C23.7431 37.2353 23.6371 36.9614 23.6371 36.6257V23.902C23.6371 23.5486 23.7431 23.2747 23.9552 23.0803C24.1672 22.8682 24.4411 22.7622 24.7769 22.7622C25.1127 22.7622 25.3777 22.8682 25.5721 23.0803C25.7842 23.2747 25.8902 23.5486 25.8902 23.902V36.6257C25.8902 36.9614 25.7842 37.2353 25.5721 37.4474C25.3777 37.6594 25.1127 37.7655 24.7769 37.7655ZM48.2814 43.5971C46.8323 43.5971 45.5511 43.2879 44.4378 42.6694C43.3245 42.0332 42.4498 41.1584 41.8136 40.0451C41.1774 38.9318 40.8593 37.6594 40.8593 36.228C40.8593 34.779 41.1597 33.5066 41.7606 32.411C42.3614 31.2976 43.1831 30.4229 44.2258 29.7867C45.2861 29.1505 46.5054 28.8324 47.8838 28.8324C49.2445 28.8324 50.4197 29.1417 51.4093 29.7602C52.3989 30.361 53.1588 31.2004 53.689 32.2784C54.2368 33.3564 54.5107 34.5846 54.5107 35.963C54.5107 36.2634 54.4135 36.5108 54.2191 36.7052C54.0247 36.8819 53.7773 36.9703 53.4769 36.9703H42.3968V35.1412H53.5829L52.4696 35.9365C52.4696 34.9645 52.2841 34.0898 51.913 33.3122C51.5419 32.5347 51.0117 31.925 50.3225 31.4832C49.651 31.0414 48.8381 30.8205 47.8838 30.8205C46.8765 30.8205 46.0018 31.0591 45.2596 31.5362C44.5174 31.9957 43.943 32.6319 43.5366 33.4448C43.1301 34.2576 42.9269 35.1854 42.9269 36.228C42.9269 37.2707 43.1566 38.1984 43.6161 39.0113C44.0756 39.8066 44.7029 40.4427 45.4981 40.9199C46.311 41.3793 47.2388 41.6091 48.2814 41.6091C48.8823 41.6091 49.4919 41.503 50.1104 41.291C50.7466 41.0789 51.2503 40.8138 51.6214 40.4958C51.8334 40.319 52.072 40.2307 52.3371 40.2307C52.6198 40.213 52.8584 40.2837 53.0528 40.4427C53.3002 40.6725 53.4239 40.9287 53.4239 41.2115C53.4416 41.4765 53.3355 41.7063 53.1058 41.9007C52.505 42.3955 51.7539 42.8019 50.8527 43.12C49.9691 43.4381 49.112 43.5971 48.2814 43.5971ZM63.9389 43.5971C62.5428 43.5971 61.297 43.279 60.2013 42.6429C59.1057 41.989 58.2398 41.1054 57.6036 39.9921C56.9851 38.8788 56.6758 37.6241 56.6758 36.228C56.6758 34.8143 56.9762 33.5508 57.5771 32.4375C58.1956 31.3241 59.0262 30.4494 60.0688 29.8132C61.1291 29.1594 62.3484 28.8324 63.7268 28.8324C64.7871 28.8324 65.7679 29.0445 66.6692 29.4686C67.5704 29.8751 68.3656 30.4936 69.0548 31.3241C69.2669 31.5716 69.3376 31.8278 69.2669 32.0929C69.2139 32.3403 69.0548 32.5612 68.7898 32.7556C68.5777 32.9146 68.3391 32.9676 68.0741 32.9146C67.809 32.8616 67.5793 32.7202 67.3849 32.4905C66.4129 31.4125 65.1936 30.8735 63.7268 30.8735C62.7726 30.8735 61.9243 31.1033 61.1821 31.5627C60.4576 32.0222 59.8921 32.6495 59.4856 33.4448C59.0792 34.24 58.8759 35.1677 58.8759 36.228C58.8759 37.253 59.088 38.1719 59.5121 38.9848C59.9362 39.7801 60.5282 40.4074 61.2881 40.8669C62.0657 41.3263 62.9493 41.5561 63.9389 41.5561C64.6104 41.5561 65.2112 41.4677 65.7414 41.291C66.2892 41.1143 66.7752 40.8492 67.1993 40.4958C67.429 40.3014 67.6676 40.1953 67.915 40.1777C68.1801 40.1423 68.4187 40.213 68.6307 40.3897C68.8605 40.6018 68.993 40.8404 69.0283 41.1054C69.0637 41.3705 68.9753 41.6091 68.7633 41.8211C67.4732 43.0051 65.8651 43.5971 63.9389 43.5971ZM75.2485 38.4547L73.8701 36.9703L82.6176 29.071C82.8473 28.8589 83.0947 28.7618 83.3598 28.7794C83.6249 28.7971 83.8634 28.9208 84.0755 29.1505C84.2876 29.3803 84.3848 29.6277 84.3671 29.8927C84.3494 30.1578 84.2257 30.3875 83.996 30.5819L75.2485 38.4547ZM74.4002 43.4646C74.0645 43.4646 73.7906 43.3674 73.5785 43.173C73.3841 42.961 73.2869 42.687 73.2869 42.3513V23.8755C73.2869 23.5398 73.3841 23.2747 73.5785 23.0803C73.7906 22.8682 74.0645 22.7622 74.4002 22.7622C74.7183 22.7622 74.9746 22.8682 75.169 23.0803C75.381 23.2747 75.4871 23.5398 75.4871 23.8755V42.3513C75.4871 42.687 75.381 42.961 75.169 43.173C74.9746 43.3674 74.7183 43.4646 74.4002 43.4646ZM84.0755 43.3321C83.8281 43.5441 83.563 43.6325 83.2803 43.5971C83.0152 43.5795 82.7855 43.4469 82.5911 43.1995L76.8389 36.122L78.4294 34.6906L84.2345 41.8476C84.4289 42.095 84.5173 42.3513 84.4996 42.6164C84.4819 42.8814 84.3406 43.12 84.0755 43.3321ZM93.7106 43.5971C92.2792 43.5971 91.0068 43.279 89.8935 42.6429C88.7978 42.0067 87.9319 41.1319 87.2957 40.0186C86.6596 38.9053 86.3415 37.6418 86.3415 36.228C86.3415 34.7966 86.6596 33.5243 87.2957 32.411C87.9319 31.2976 88.7978 30.4229 89.8935 29.7867C91.0068 29.1505 92.2792 28.8324 93.7106 28.8324C95.1243 28.8324 96.379 29.1505 97.4746 29.7867C98.5703 30.4229 99.4362 31.2976 100.072 32.411C100.709 33.5243 101.035 34.7966 101.053 36.228C101.053 37.6418 100.735 38.9053 100.099 40.0186C99.4627 41.1319 98.588 42.0067 97.4746 42.6429C96.379 43.279 95.1243 43.5971 93.7106 43.5971ZM93.7106 41.5561C94.7002 41.5561 95.5838 41.3263 96.3613 40.8669C97.1389 40.4074 97.7397 39.7801 98.1638 38.9848C98.6056 38.1719 98.8265 37.253 98.8265 36.228C98.8265 35.2031 98.6056 34.2842 98.1638 33.4713C97.7397 32.6584 97.1389 32.0222 96.3613 31.5627C95.5838 31.1033 94.7002 30.8735 93.7106 30.8735C92.721 30.8735 91.8374 31.1033 91.0598 31.5627C90.2823 32.0222 89.6638 32.6584 89.2043 33.4713C88.7625 34.2842 88.5416 35.2031 88.5416 36.228C88.5416 37.253 88.7625 38.1719 89.2043 38.9848C89.6638 39.7801 90.2823 40.4074 91.0598 40.8669C91.8374 41.3263 92.721 41.5561 93.7106 41.5561ZM111.253 43.6236C110.016 43.6236 108.902 43.3674 107.913 42.8549C106.941 42.3248 106.172 41.5561 105.607 40.5488C105.041 39.5415 104.758 38.3045 104.758 36.8377V30.0783C104.758 29.7602 104.864 29.4951 105.077 29.2831C105.289 29.071 105.554 28.965 105.872 28.965C106.207 28.965 106.481 29.071 106.693 29.2831C106.906 29.4951 107.012 29.7602 107.012 30.0783V36.8377C107.012 37.898 107.206 38.7728 107.595 39.462C108.001 40.1512 108.549 40.6636 109.238 40.9994C109.927 41.3352 110.705 41.503 111.571 41.503C112.401 41.503 113.144 41.344 113.797 41.0259C114.469 40.7078 114.999 40.266 115.388 39.7005C115.777 39.135 115.971 38.4989 115.971 37.792H117.509C117.473 38.9053 117.182 39.9038 116.634 40.7873C116.086 41.6533 115.344 42.3424 114.407 42.8549C113.471 43.3674 112.419 43.6236 111.253 43.6236ZM117.111 43.4646C116.775 43.4646 116.501 43.3586 116.289 43.1465C116.077 42.9344 115.971 42.6605 115.971 42.3248V30.0783C115.971 29.7425 116.077 29.4775 116.289 29.2831C116.501 29.071 116.775 28.965 117.111 28.965C117.447 28.965 117.721 29.071 117.933 29.2831C118.145 29.4775 118.251 29.7425 118.251 30.0783V42.3248C118.251 42.6605 118.145 42.9344 117.933 43.1465C117.721 43.3586 117.447 43.4646 117.111 43.4646ZM128.555 43.4646C127.636 43.4646 126.814 43.2437 126.089 42.8019C125.365 42.3601 124.79 41.7504 124.366 40.9729C123.96 40.1953 123.757 39.3206 123.757 38.3486V25.4925C123.757 25.1567 123.854 24.8828 124.048 24.6708C124.26 24.4587 124.534 24.3527 124.87 24.3527C125.188 24.3527 125.453 24.4587 125.665 24.6708C125.877 24.8828 125.983 25.1567 125.983 25.4925V38.3486C125.983 39.1792 126.222 39.8684 126.699 40.4162C127.194 40.9464 127.812 41.2115 128.555 41.2115H129.323C129.624 41.2115 129.871 41.3175 130.065 41.5295C130.26 41.7416 130.357 42.0155 130.357 42.3513C130.357 42.687 130.233 42.961 129.986 43.173C129.756 43.3674 129.456 43.4646 129.085 43.4646H128.555ZM122.193 31.4302C121.892 31.4302 121.645 31.3418 121.451 31.1651C121.256 30.9884 121.159 30.7587 121.159 30.4759C121.159 30.1932 121.256 29.9634 121.451 29.7867C121.645 29.5923 121.892 29.4951 122.193 29.4951H128.74C129.04 29.4951 129.288 29.5923 129.482 29.7867C129.677 29.9634 129.774 30.1932 129.774 30.4759C129.774 30.7587 129.677 30.9884 129.482 31.1651C129.288 31.3418 129.04 31.4302 128.74 31.4302H122.193ZM144.759 43.4646C144.512 43.4646 144.282 43.3939 144.07 43.2525C143.875 43.1112 143.743 42.9344 143.672 42.7224L139.616 30.5289C139.493 30.0518 139.493 29.6718 139.616 29.3891C139.758 29.1064 140.041 28.965 140.465 28.965C140.73 28.965 140.951 29.0357 141.127 29.177C141.322 29.3184 141.472 29.557 141.578 29.8927L145.157 40.8669H144.467L147.781 29.8397C147.869 29.5747 148.002 29.3626 148.178 29.2035C148.355 29.0445 148.594 28.965 148.894 28.965C149.194 28.965 149.433 29.0445 149.61 29.2035C149.804 29.3626 149.937 29.5747 150.007 29.8397L153.029 40.4958H152.605L156.051 29.8927C156.246 29.2742 156.617 28.965 157.164 28.965C157.589 28.965 157.871 29.124 158.013 29.4421C158.172 29.7425 158.172 30.1048 158.013 30.5289L153.957 42.7224C153.886 42.9344 153.754 43.1112 153.559 43.2525C153.383 43.3939 153.162 43.4646 152.897 43.4646C152.649 43.4646 152.42 43.3939 152.208 43.2525C152.013 43.1112 151.889 42.9344 151.836 42.7224L148.682 31.9868H149L145.819 42.7224C145.749 42.9521 145.607 43.1377 145.395 43.279C145.201 43.4027 144.989 43.4646 144.759 43.4646ZM162.475 43.4646C162.139 43.4646 161.865 43.3586 161.653 43.1465C161.441 42.9344 161.335 42.6605 161.335 42.3248V30.1048C161.335 29.7514 161.441 29.4775 161.653 29.2831C161.865 29.071 162.139 28.965 162.475 28.965C162.81 28.965 163.075 29.071 163.27 29.2831C163.482 29.4775 163.588 29.7514 163.588 30.1048V42.3248C163.588 42.6605 163.482 42.9344 163.27 43.1465C163.075 43.3586 162.81 43.4646 162.475 43.4646ZM162.448 26.3407C162.024 26.3407 161.662 26.1905 161.361 25.8901C161.061 25.5897 160.911 25.2186 160.911 24.7768C160.911 24.335 161.061 23.9727 161.361 23.69C161.679 23.3896 162.051 23.2394 162.475 23.2394C162.881 23.2394 163.235 23.3896 163.535 23.69C163.853 23.9727 164.012 24.335 164.012 24.7768C164.012 25.2186 163.853 25.5897 163.535 25.8901C163.235 26.1905 162.872 26.3407 162.448 26.3407ZM174.27 43.4646C173.351 43.4646 172.529 43.2437 171.804 42.8019C171.08 42.3601 170.506 41.7504 170.081 40.9729C169.675 40.1953 169.472 39.3206 169.472 38.3486V25.4925C169.472 25.1567 169.569 24.8828 169.763 24.6708C169.975 24.4587 170.249 24.3527 170.585 24.3527C170.903 24.3527 171.168 24.4587 171.38 24.6708C171.592 24.8828 171.698 25.1567 171.698 25.4925V38.3486C171.698 39.1792 171.937 39.8684 172.414 40.4162C172.909 40.9464 173.527 41.2115 174.27 41.2115H175.038C175.339 41.2115 175.586 41.3175 175.781 41.5295C175.975 41.7416 176.072 42.0155 176.072 42.3513C176.072 42.687 175.948 42.961 175.701 43.173C175.471 43.3674 175.171 43.4646 174.8 43.4646H174.27ZM167.908 31.4302C167.607 31.4302 167.36 31.3418 167.166 31.1651C166.971 30.9884 166.874 30.7587 166.874 30.4759C166.874 30.1932 166.971 29.9634 167.166 29.7867C167.36 29.5923 167.607 29.4951 167.908 29.4951H174.455C174.756 29.4951 175.003 29.5923 175.197 29.7867C175.392 29.9634 175.489 30.1932 175.489 30.4759C175.489 30.7587 175.392 30.9884 175.197 31.1651C175.003 31.3418 174.756 31.4302 174.455 31.4302H167.908ZM191.774 43.4646C191.438 43.4646 191.164 43.3586 190.952 43.1465C190.74 42.9344 190.634 42.6694 190.634 42.3513V35.5919C190.634 34.5139 190.431 33.6391 190.024 32.9676C189.618 32.2784 189.07 31.7659 188.381 31.4302C187.709 31.0944 186.932 30.9265 186.048 30.9265C185.235 30.9265 184.493 31.0856 183.821 31.4037C183.15 31.7218 182.62 32.1636 182.231 32.729C181.842 33.2769 181.648 33.9131 181.648 34.6376H180.137C180.155 33.5243 180.437 32.5347 180.985 31.6687C181.551 30.7852 182.302 30.0871 183.238 29.5747C184.175 29.0622 185.218 28.8059 186.366 28.8059C187.621 28.8059 188.734 29.071 189.706 29.6012C190.696 30.1136 191.473 30.8735 192.039 31.8808C192.604 32.8881 192.887 34.1251 192.887 35.5919V42.3513C192.887 42.6694 192.781 42.9344 192.569 43.1465C192.357 43.3586 192.092 43.4646 191.774 43.4646ZM180.535 43.4646C180.199 43.4646 179.925 43.3674 179.713 43.173C179.501 42.961 179.395 42.687 179.395 42.3513V30.1048C179.395 29.7514 179.501 29.4775 179.713 29.2831C179.925 29.071 180.199 28.965 180.535 28.965C180.87 28.965 181.135 29.071 181.33 29.2831C181.542 29.4775 181.648 29.7514 181.648 30.1048V42.3513C181.648 42.687 181.542 42.961 181.33 43.173C181.135 43.3674 180.87 43.4646 180.535 43.4646ZM180.535 37.7655C180.199 37.7655 179.925 37.6594 179.713 37.4474C179.501 37.2353 179.395 36.9614 179.395 36.6257V23.902C179.395 23.5486 179.501 23.2747 179.713 23.0803C179.925 22.8682 180.199 22.7622 180.535 22.7622C180.87 22.7622 181.135 22.8682 181.33 23.0803C181.542 23.2747 181.648 23.5486 181.648 23.902V36.6257C181.648 36.9614 181.542 37.2353 181.33 37.4474C181.135 37.6594 180.87 37.7655 180.535 37.7655Z" fill="#382757"/>
<defs>
<linearGradient id="paint0_linear_1408_7542" x1="246.573" y1="45.299" x2="235.781" y2="32.4379" gradientUnits="userSpaceOnUse">
<stop stop-color="#CE5DCB"/>
<stop offset="0.2095" stop-color="#C558CC"/>
<stop offset="0.5525" stop-color="#AC4ACF"/>
<stop offset="0.9845" stop-color="#8534D4"/>
<stop offset="1" stop-color="#8333D4"/>
</linearGradient>
<linearGradient id="paint1_linear_1408_7542" x1="246.964" y1="30.6598" x2="270.153" y2="30.6598" gradientUnits="userSpaceOnUse">
<stop offset="0.0237" stop-color="#FF5667"/>
<stop offset="0.6592" stop-color="#FC8B82"/>
<stop offset="1" stop-color="#FBA28E"/>
</linearGradient>
<linearGradient id="paint2_linear_1408_7542" x1="221" y1="22.3263" x2="252.915" y2="22.3263" gradientUnits="userSpaceOnUse">
<stop stop-color="#00B874"/>
<stop offset="0.5126" stop-color="#29D3A2"/>
<stop offset="0.6817" stop-color="#53DFB6"/>
<stop offset="1" stop-color="#9FF4D9"/>
</linearGradient>
<linearGradient id="paint3_linear_1408_7542" x1="242.747" y1="44.0733" x2="274.662" y2="44.0733" gradientUnits="userSpaceOnUse">
<stop stop-color="#FCD77E"/>
<stop offset="0.5241" stop-color="#FEA500"/>
<stop offset="1" stop-color="#FF5B00"/>
</linearGradient>
</defs>
</svg>
